<svg width="61" height="106" viewBox="0 0 61 106" fill="none" xmlns="http://www.w3.org/2000/svg">
<path d="M30.5 61L30.5 9.53674e-07" stroke="white"/>
<path d="M2.688 92.52C2.688 92.904 2.78933 93.2507 2.992 93.56C3.19467 93.8693 3.44 94.1413 3.728 94.376C4.02667 94.6 4.42667 94.872 4.928 95.192C5.472 95.544 5.89867 95.848 6.208 96.104C6.528 96.36 6.8 96.6693 7.024 97.032C7.248 97.384 7.36 97.7893 7.36 98.248C7.36 99.1547 7.04 99.8747 6.4 100.408C5.77067 100.931 4.95467 101.192 3.952 101.192C3.472 101.192 2.96 101.128 2.416 101C1.872 100.861 1.50933 100.712 1.328 100.552C1.27467 100.52 1.23733 100.488 1.216 100.456C1.20533 100.413 1.19467 100.344 1.184 100.248L1.12 97.704C1.10933 97.6613 1.13067 97.6347 1.184 97.624C1.248 97.6133 1.29067 97.6293 1.312 97.672C1.61067 98.2907 1.888 98.8133 2.144 99.24C2.41067 99.656 2.73067 100.019 3.104 100.328C3.47733 100.637 3.89867 100.792 4.368 100.792C5.30667 100.792 5.776 100.28 5.776 99.256C5.776 98.7653 5.664 98.3333 5.44 97.96C5.22667 97.5867 4.96 97.2773 4.64 97.032C4.33067 96.776 3.91467 96.4773 3.392 96.136C2.912 95.8267 2.528 95.56 2.24 95.336C1.952 95.1013 1.70667 94.824 1.504 94.504C1.312 94.184 1.216 93.8213 1.216 93.416C1.216 92.84 1.376 92.36 1.696 91.976C2.02667 91.5813 2.448 91.2933 2.96 91.112C3.472 90.92 4.016 90.824 4.592 90.824C4.96533 90.824 5.35467 90.8613 5.76 90.936C6.176 91 6.496 91.08 6.72 91.176C6.816 91.2293 6.88 91.2827 6.912 91.336C6.944 91.3787 6.96 91.432 6.96 91.496V93.848C6.96 93.88 6.93333 93.9067 6.88 93.928C6.82667 93.9387 6.78933 93.928 6.768 93.896C6.736 93.832 6.61867 93.56 6.416 93.08C6.224 92.5893 5.92533 92.152 5.52 91.768C5.12533 91.3733 4.672 91.176 4.16 91.176C3.73333 91.176 3.38133 91.304 3.104 91.56C2.82667 91.8053 2.688 92.1253 2.688 92.52ZM14.9101 101.192C13.5981 101.192 12.5208 100.936 11.6781 100.424C10.8355 99.912 10.2275 99.2667 9.85413 98.488C9.48079 97.6987 9.29413 96.8667 9.29413 95.992C9.29413 94.936 9.55013 94.0187 10.0621 93.24C10.5848 92.4507 11.2728 91.8533 12.1261 91.448C12.9901 91.032 13.9235 90.824 14.9261 90.824C15.4168 90.824 15.9288 90.872 16.4621 90.968C16.9955 91.0533 17.4275 91.16 17.7581 91.288C17.8435 91.3413 17.8968 91.3893 17.9181 91.432C17.9501 91.4747 17.9661 91.5493 17.9661 91.656L18.0781 93.8C18.0781 93.832 18.0515 93.848 17.9981 93.848C17.9555 93.848 17.9235 93.832 17.9021 93.8C17.5075 92.9893 17.0008 92.3653 16.3821 91.928C15.7741 91.48 15.0808 91.256 14.3021 91.256C13.2888 91.256 12.5101 91.624 11.9661 92.36C11.4328 93.096 11.1661 94.1307 11.1661 95.464C11.1661 96.424 11.3315 97.32 11.6621 98.152C12.0035 98.984 12.4621 99.6453 13.0381 100.136C13.6141 100.627 14.2488 100.872 14.9421 100.872C16.0408 100.872 17.0648 100.061 18.0141 98.44C18.0355 98.408 18.0621 98.392 18.0941 98.392C18.1581 98.392 18.1901 98.424 18.1901 98.488L18.0941 100.328C18.0728 100.467 18.0515 100.557 18.0301 100.6C18.0088 100.632 17.9501 100.664 17.8541 100.696C16.9155 101.027 15.9341 101.192 14.9101 101.192ZM30.7304 100.808C30.7624 100.808 30.7784 100.84 30.7784 100.904C30.789 100.968 30.773 101 30.7304 101H28.1064C27.8504 101 27.4024 100.573 26.7624 99.72C26.133 98.856 25.3704 97.56 24.4744 95.832C24.1757 95.9067 23.845 95.944 23.4824 95.944C23.429 95.944 23.3597 95.9333 23.2744 95.912V99.704C23.2637 100.013 23.285 100.248 23.3384 100.408C23.4024 100.557 23.509 100.664 23.6584 100.728C23.8184 100.781 24.0584 100.808 24.3784 100.808C24.421 100.808 24.4424 100.84 24.4424 100.904C24.453 100.968 24.437 101 24.3944 101C24.0317 101 23.7544 100.995 23.5624 100.984L22.3784 100.968L21.1784 100.984C20.965 100.995 20.677 101 20.3144 101C20.2717 101 20.245 100.968 20.2344 100.904C20.2344 100.84 20.2557 100.808 20.2984 100.808C20.6504 100.808 20.9117 100.781 21.0824 100.728C21.253 100.664 21.365 100.557 21.4184 100.408C21.4824 100.248 21.5197 100.013 21.5304 99.704V92.296C21.5304 91.976 21.4984 91.7413 21.4344 91.592C21.381 91.4427 21.2744 91.3413 21.1144 91.288C20.9544 91.224 20.709 91.192 20.3784 91.192C20.3357 91.192 20.3144 91.16 20.3144 91.096C20.3144 91.032 20.3357 91 20.3784 91L21.2264 91.016C21.6957 91.0373 22.0797 91.048 22.3784 91.048C22.741 91.048 23.1357 91.0267 23.5624 90.984C23.9037 90.9627 24.1277 90.952 24.2344 90.952C25.3117 90.952 26.117 91.128 26.6504 91.48C27.1944 91.832 27.4664 92.3227 27.4664 92.952C27.4664 93.4107 27.3117 93.8533 27.0024 94.28C26.7037 94.7067 26.3037 95.064 25.8024 95.352C26.6344 96.728 27.3384 97.8107 27.9144 98.6C28.501 99.3787 29.013 99.944 29.4504 100.296C29.8984 100.637 30.325 100.808 30.7304 100.808ZM23.2744 95.464C23.4024 95.496 23.557 95.512 23.7384 95.512C24.4424 95.512 24.9384 95.3573 25.2264 95.048C25.525 94.7387 25.6744 94.2213 25.6744 93.496C25.6744 92.7387 25.525 92.184 25.2264 91.832C24.9384 91.4693 24.581 91.288 24.1544 91.288C23.8664 91.288 23.669 91.3093 23.5624 91.352C23.4557 91.384 23.381 91.4693 23.3384 91.608C23.3064 91.736 23.285 91.976 23.2744 92.328V95.464ZM36.0848 101.192C35.0714 101.192 34.1754 100.963 33.3968 100.504C32.6181 100.045 32.0154 99.4267 31.5888 98.648C31.1728 97.8587 30.9648 96.984 30.9648 96.024C30.9648 95.0427 31.1941 94.1573 31.6528 93.368C32.1221 92.5787 32.7621 91.96 33.5728 91.512C34.3941 91.0533 35.3168 90.824 36.3408 90.824C37.3754 90.824 38.2874 91.048 39.0768 91.496C39.8661 91.9333 40.4741 92.5413 40.9008 93.32C41.3381 94.088 41.5568 94.9467 41.5568 95.896C41.5568 96.952 41.3061 97.8853 40.8048 98.696C40.3141 99.496 39.6474 100.115 38.8048 100.552C37.9728 100.979 37.0661 101.192 36.0848 101.192ZM36.7568 100.776C37.3434 100.776 37.8554 100.616 38.2928 100.296C38.7408 99.976 39.0874 99.5227 39.3328 98.936C39.5781 98.3387 39.7008 97.64 39.7008 96.84C39.7008 95.8587 39.5354 94.936 39.2048 94.072C38.8741 93.208 38.4101 92.5147 37.8128 91.992C37.2154 91.4693 36.5328 91.208 35.7648 91.208C35.1781 91.208 34.6608 91.368 34.2128 91.688C33.7648 92.008 33.4181 92.4667 33.1728 93.064C32.9274 93.6507 32.8048 94.344 32.8048 95.144C32.8048 96.104 32.9701 97.0213 33.3008 97.896C33.6314 98.76 34.0954 99.4587 34.6928 99.992C35.3008 100.515 35.9888 100.776 36.7568 100.776ZM43.4984 101C43.477 101 43.4664 100.968 43.4664 100.904C43.4664 100.84 43.477 100.808 43.4984 100.808C43.829 100.808 44.069 100.781 44.2184 100.728C44.3677 100.675 44.4637 100.573 44.5064 100.424C44.5597 100.275 44.5864 100.035 44.5864 99.704V92.296C44.5864 91.976 44.5597 91.7413 44.5064 91.592C44.453 91.4427 44.3517 91.3413 44.2024 91.288C44.053 91.224 43.829 91.192 43.5304 91.192C43.4984 91.192 43.4824 91.16 43.4824 91.096C43.4824 91.032 43.4984 91 43.5304 91L44.2984 91.016C44.7677 91.0373 45.1464 91.048 45.4344 91.048C45.7224 91.048 46.1117 91.0373 46.6024 91.016L47.4184 91C47.4397 91 47.4504 91.032 47.4504 91.096C47.4504 91.16 47.4397 91.192 47.4184 91.192C47.0877 91.192 46.8477 91.224 46.6984 91.288C46.5597 91.3413 46.4637 91.4427 46.4104 91.592C46.3677 91.7413 46.341 91.9813 46.3304 92.312V99.64C46.3304 100.056 46.389 100.333 46.5064 100.472C46.6237 100.6 46.8477 100.664 47.1784 100.664H47.6264C48.4904 100.664 49.2104 100.472 49.7864 100.088C50.373 99.6933 50.8424 99.0853 51.1944 98.264C51.2157 98.2427 51.2424 98.232 51.2744 98.232C51.3064 98.232 51.3384 98.2427 51.3704 98.264C51.4024 98.2747 51.4184 98.2907 51.4184 98.312C51.333 99.1867 51.2904 100.003 51.2904 100.76C51.2904 100.92 51.2104 101 51.0504 101H43.4984ZM52.8415 101C52.8202 101 52.8095 100.968 52.8095 100.904C52.8095 100.84 52.8202 100.808 52.8415 100.808C53.1722 100.808 53.4122 100.781 53.5615 100.728C53.7108 100.675 53.8068 100.573 53.8495 100.424C53.9028 100.275 53.9295 100.035 53.9295 99.704V92.296C53.9295 91.976 53.9028 91.7413 53.8495 91.592C53.7962 91.4427 53.6948 91.3413 53.5455 91.288C53.3962 91.224 53.1722 91.192 52.8735 91.192C52.8415 91.192 52.8255 91.16 52.8255 91.096C52.8255 91.032 52.8415 91 52.8735 91L53.6415 91.016C54.1108 91.0373 54.4895 91.048 54.7775 91.048C55.0655 91.048 55.4548 91.0373 55.9455 91.016L56.7615 91C56.7828 91 56.7935 91.032 56.7935 91.096C56.7935 91.16 56.7828 91.192 56.7615 91.192C56.4308 91.192 56.1908 91.224 56.0415 91.288C55.9028 91.3413 55.8068 91.4427 55.7535 91.592C55.7108 91.7413 55.6842 91.9813 55.6735 92.312V99.64C55.6735 100.056 55.7322 100.333 55.8495 100.472C55.9668 100.6 56.1908 100.664 56.5215 100.664H56.9695C57.8335 100.664 58.5535 100.472 59.1295 100.088C59.7162 99.6933 60.1855 99.0853 60.5375 98.264C60.5588 98.2427 60.5855 98.232 60.6175 98.232C60.6495 98.232 60.6815 98.2427 60.7135 98.264C60.7455 98.2747 60.7615 98.2907 60.7615 98.312C60.6762 99.1867 60.6335 100.003 60.6335 100.76C60.6335 100.92 60.5535 101 60.3935 101H52.8415Z" fill="#DCCA87"/>
</svg>
